<?xml version="1.0" encoding="UTF-8" standalone="no"?>
<!-- Created with Inkscape (http://www.inkscape.org/) -->

<svg
   xmlns:dc="http://purl.org/dc/elements/1.1/"
   xmlns:cc="http://creativecommons.org/ns#"
   xmlns:rdf="http://www.w3.org/1999/02/22-rdf-syntax-ns#"
   xmlns:svg="http://www.w3.org/2000/svg"
   xmlns="http://www.w3.org/2000/svg"
   xmlns:xlink="http://www.w3.org/1999/xlink"
   xmlns:sodipodi="http://sodipodi.sourceforge.net/DTD/sodipodi-0.dtd"
   xmlns:inkscape="http://www.inkscape.org/namespaces/inkscape"
   width="16"
   height="16"
   viewBox="0 0 4.23332 4.23332"
   version="1.1"
   id="svg8"
   inkscape:version="0.92.2 5c3e80d, 2017-08-06"
   sodipodi:docname="app-icon-16x16.svg"
   inkscape:export-filename="/Users/Pascal/Documents/Eclipse Java Workspace/RomInfoTool/src/main/resources/ROM Metadata Reader 32x32.png"
   inkscape:export-xdpi="192"
   inkscape:export-ydpi="192">
  <defs
     id="defs2">
    <linearGradient
       inkscape:collect="always"
       id="linearGradient1325">
      <stop
         style="stop-color:#ffffff;stop-opacity:1;"
         offset="0"
         id="stop1321" />
      <stop
         style="stop-color:#ffffff;stop-opacity:0;"
         offset="1"
         id="stop1323" />
    </linearGradient>
    <clipPath
       clipPathUnits="userSpaceOnUse"
       id="clipPath1198">
      <path
         id="path1200"
         d="M 8,9.99999 V 11 h 5.8047 c 0.2072,-0.359 0.452,-0.6933 0.7265,-1.00001 z M 8,12 v 1 h 5.0898 c 0.058,-0.3445 0.1446,-0.6783 0.2579,-1 z m 0,2 v 0.998 h 5.0879 C 13.0338,14.6731 13,14.3407 13,14 Z m 0,1.998 v 1 h 5.8027 c -0.1821,-0.316 -0.3342,-0.6505 -0.457,-1 z m 0,2.004 v 1 h 7.6797 c -0.4256,-0.2824 -0.8089,-0.621 -1.1485,-1 z"
         style="opacity:0.08;fill:#000000;fill-opacity:1;stroke:none;stroke-width:0.264583;stroke-linecap:square;stroke-linejoin:round;stroke-miterlimit:4;stroke-dasharray:none;stroke-dashoffset:0;stroke-opacity:1"
         inkscape:connector-curvature="0" />
    </clipPath>
    <linearGradient
       inkscape:collect="always"
       xlink:href="#linearGradient1325"
       id="linearGradient1327"
       x1="8.99999"
       y1="6"
       x2="8.99999"
       y2="9.99999"
       gradientUnits="userSpaceOnUse" />
    <clipPath
       clipPathUnits="userSpaceOnUse"
       id="clipPath1047">
      <rect
         style="opacity:0.684;fill:#d6ffff;fill-opacity:1;stroke:none;stroke-width:0.264583;stroke-linecap:square;stroke-linejoin:round;stroke-miterlimit:4;stroke-dasharray:none;stroke-dashoffset:0;stroke-opacity:0"
         id="rect1049"
         width="8.99582"
         height="8.20233"
         x="3.96874"
         y="285.623"
         ry="0.266538" />
    </clipPath>
  </defs>
  <sodipodi:namedview
     id="base"
     pagecolor="#ffffff"
     bordercolor="#666666"
     borderopacity="1.0"
     inkscape:pageopacity="0.0"
     inkscape:pageshadow="2"
     inkscape:zoom="45.2548"
     inkscape:cx="10.8692"
     inkscape:cy="8.61009"
     inkscape:document-units="mm"
     inkscape:current-layer="layer1"
     showgrid="true"
     units="px">
    <inkscape:grid
       type="xygrid"
       id="grid815"
       empcolor="#3f3fff"
       empopacity="0.580392"
       color="#3f3fff"
       opacity="0.298039" />
  </sodipodi:namedview>
  <metadata
     id="metadata5">
    <rdf:RDF>
      <cc:Work
         rdf:about="">
        <dc:format>image/svg+xml</dc:format>
        <dc:type
           rdf:resource="http://purl.org/dc/dcmitype/StillImage" />
        <dc:title />
      </cc:Work>
    </rdf:RDF>
  </metadata>
  <g
     inkscape:label="Layer 1"
     inkscape:groupmode="layer"
     id="layer1"
     transform="translate(0,-292.767)">
    <path
       style="opacity:0.684;fill:#cccccc;fill-opacity:1;stroke:none;stroke-width:1.243473;stroke-linecap:square;stroke-linejoin:round;stroke-miterlimit:4;stroke-dasharray:none;stroke-dashoffset:0;stroke-opacity:1"
       d="M 2.99805 1.00195 C 2.44495 1.00195 2 1.4469 2 2 L 2 15.002 L 2.00195 15.002 L 2.00195 14.0039 C 2.00195 14.5557 2.44441 15.002 3 15.002 L 14 15.002 L 14 14.998 L 13.002 14.998 C 13.5538 14.998 14 14.5556 14 14 L 14 2.99805 C 14 2.44623 13.5575 2 13.002 2 L 14 2 L 14 1.99805 L 12 1.99805 C 11.9989 1.44716 11.5568 1.00195 11.002 1.00195 L 2.99805 1.00195 z "
       transform="matrix(0.264583,0,0,0.264583,0,292.767)"
       id="rect881" />
    <path
       style="opacity:0.8;fill:#ffffff;fill-opacity:1;stroke:none;stroke-width:1.243481;stroke-linecap:square;stroke-linejoin:round;stroke-miterlimit:4;stroke-dasharray:none;stroke-dashoffset:0;stroke-opacity:1"
       d="M 10 1.99805 L 10 2 L 3 2 L 3 14 L 13 14 L 13 3 L 12 3 L 12 3.00195 C 11.446 3.00195 11 2.55595 11 2.00195 L 11 2 L 11 1.99805 L 10 1.99805 z M 4 3 L 10 3 L 10.2754 3 C 10.621 3.5958 11.2589 4 12 4 L 12 12.998 L 10 12.998 L 10 13.002 L 4 13.002 L 4 3 z "
       transform="matrix(0.264583,0,0,0.264583,0,292.767)"
       id="path911" />
    <path
       style="opacity:0.3;fill:#000000;fill-opacity:1;stroke:none;stroke-width:1.243477;stroke-linecap:square;stroke-linejoin:round;stroke-miterlimit:4;stroke-dasharray:none;stroke-dashoffset:0;stroke-opacity:1"
       d="M 2.99805 1.00195 C 2.44495 1.00195 2 1.4469 2 2 L 2 3 L 2 4 L 2 5 L 2 6 L 2 15.002 L 2.00195 15.002 L 2.00195 14.0039 C 2.00195 14.5557 2.44441 15.002 3 15.002 L 14 15.002 L 14 14.998 L 13.002 14.998 C 13.5538 14.998 14 14.5556 14 14 L 14 2.99805 C 14 2.44623 13.5575 2 13.002 2 L 14 2 L 14 1.99805 L 12 1.99805 C 11.9989 1.44716 11.5568 1.00195 11.002 1.00195 L 2.99805 1.00195 z M 3 2 L 11 2 L 11 3 L 12 3 L 12 4 L 13 4 L 13 5 L 12 5 L 12 6 L 13 6 L 13 14 L 3 14 L 3 6 L 4 6 L 4 5 L 3 5 L 3 4 L 4 4 L 4 3 L 3 3 L 3 2 z M 11.002 2 C 11.002 2.55181 11.4444 2.99805 12 2.99805 L 11.002 2.99805 L 11.002 2 z "
       id="path903"
       transform="matrix(0.264583,0,0,0.264583,0,292.767)" />
    <rect
       style="opacity:0.684;fill:#636363;fill-opacity:1;stroke:none;stroke-width:0.329;stroke-linecap:square;stroke-linejoin:round;stroke-miterlimit:4;stroke-dasharray:none;stroke-dashoffset:0;stroke-opacity:1"
       id="rect931"
       width="0.529166"
       height="0.264583"
       x="1.85208"
       y="296.207" />
    <path
       style="opacity:0.3;fill:#000000;fill-opacity:1;stroke:none;stroke-width:1.243469;stroke-linecap:square;stroke-linejoin:round;stroke-miterlimit:4;stroke-dasharray:none;stroke-dashoffset:0;stroke-opacity:1"
       d="M 6 7 C 5.44581 7 5 7.44581 5 8 L 5 11 C 5 11.5542 5.44581 12 6 12 L 10 12 C 10.5542 12 11 11.5542 11 11 L 11 8 C 11 7.44581 10.5542 7 10 7 L 6 7 z M 6 8.00195 L 10 8.00195 L 10 11.002 L 6 11.002 L 6 8.00195 z "
       transform="matrix(0.264583,0,0,0.264583,0,292.767)"
       id="rect893" />
    <rect
       style="opacity:1;fill:#2197bb;fill-opacity:1;stroke:none;stroke-width:0.329;stroke-linecap:square;stroke-linejoin:round;stroke-miterlimit:4;stroke-dasharray:none;stroke-dashoffset:0;stroke-opacity:1"
       id="rect898"
       width="1.05833"
       height="0.793749"
       x="1.5875"
       y="294.884" />
    <path
       style="opacity:0.3;fill:#000000;fill-opacity:1;stroke:none;stroke-width:1.243471;stroke-linecap:square;stroke-linejoin:round;stroke-miterlimit:4;stroke-dasharray:none;stroke-dashoffset:0;stroke-opacity:1"
       d="M 6.5 3 C 5.669 3 5 3.669 5 4.5 C 5 4.6763 5.03642 4.84299 5.0918 5 L 10.9082 5 C 10.9636 4.84299 11 4.6763 11 4.5 C 11 3.669 10.331 3 9.5 3 L 6.5 3 z M 6 3.99805 L 10 3.99805 L 10 4.99805 L 6 4.99805 L 6 3.99805 z "
       transform="matrix(0.264583,0,0,0.264583,0,292.767)"
       id="rect900" />
    <path
       style="opacity:0.6;fill:#ffffff;fill-opacity:1;stroke:none;stroke-width:1.243471;stroke-linecap:square;stroke-linejoin:round;stroke-miterlimit:4;stroke-dasharray:none;stroke-dashoffset:0;stroke-opacity:1"
       d="M 5.0918 5 C 5.29746 5.58308 5.8453 6.00195 6.5 6.00195 L 9.5 6.00195 C 10.1547 6.00195 10.7025 5.58308 10.9082 5 L 5.0918 5 z "
       transform="matrix(0.264583,0,0,0.264583,0,292.767)"
       id="path907" />
  </g>
</svg>
