<svg height="300px"
    width="300px"
    fill="#000000"
    xmlns="http://www.w3.org/2000/svg"
    version="1.1"
    x="0px"
    y="0px"
    viewBox="0 0 100 100"
    style="enable-background:new 0 0 100 100;"
    xml:space="preserve"><path d="M62.6,66.8c0,1.7-1.4,3.1-3.1,3.1c-1.7,0-3.1-1.4-3.1-3.1c0-1.7,1.4-3.1,3.1-3.1C61.2,63.6,62.6,65,62.6,66.8z M68.9,60.5  c-1.7,0-3.1,1.4-3.1,3.1c0,1.7,1.4,3.1,3.1,3.1c1.7,0,3.1-1.4,3.1-3.1C72.1,61.9,70.6,60.5,68.9,60.5z M40.4,63.1H37v-3.3  c0-0.4-0.3-0.8-0.7-0.8h-2.7c-0.4,0-0.7,0.4-0.7,0.8v3.3h-3.4c-0.4,0-0.7,0.4-0.7,0.8v2.7c0,0.4,0.3,0.7,0.7,0.7h3.4v3.4  c0,0.4,0.3,0.7,0.7,0.7h2.7c0.4,0,0.7-0.3,0.7-0.7v-3.4h3.4c0.4,0,0.7-0.3,0.7-0.7v-2.7C41.1,63.5,40.8,63.1,40.4,63.1z M73.4,7.3  H26.6c-1.1,0-2,0.9-2,2v81.2c0,1.1,0.9,2,2,2h38.8c5.6,0,10.1-4.6,10.1-10.1V9.4C75.5,8.3,74.6,7.3,73.4,7.3 M73.4,5  c2.4,0,4.4,2,4.4,4.4v73.1c0,6.9-5.5,12.5-12.4,12.5H26.6c-2.4,0-4.4-2-4.4-4.4V9.4c0-2.4,2-4.4,4.4-4.4H73.4L73.4,5z M49.4,79.5  c0-0.5-0.4-0.9-0.9-0.9h-3.8c-0.5,0-0.9,0.4-0.9,0.9v0.1c0,0.5,0.4,0.9,0.9,0.9h3.8c0.5,0,0.9-0.4,0.9-0.9V79.5z M56.9,79.5  c0-0.5-0.4-0.9-0.9-0.9h-3.8c-0.5,0-0.9,0.4-0.9,0.9v0.1c0,0.5,0.4,0.9,0.9,0.9H56c0.5,0,0.9-0.4,0.9-0.9V79.5z M72.2,14.2v31.6  c0,2.7-2.3,4.9-5,4.9H29.3c-0.8,0-1.4-0.7-1.4-1.5V14.2c0-0.8,0.6-1.5,1.4-1.5h41.4C71.6,12.8,72.2,13.4,72.2,14.2z M66.8,17.7  c0-0.6-0.5-1.1-1.1-1.1H34.5c-0.6,0-1.1,0.5-1.1,1.1v27.6c0,0.6,0.5,1.1,1.1,1.1h31.2c0.6,0,1.1-0.5,1.1-1.1V17.7z M63.4,88.2  c-0.3,0-0.5,0.2-0.5,0.5c0,0.3,0.2,0.5,0.5,0.5c0.3,0,0.5-0.2,0.5-0.5C63.8,88.4,63.6,88.2,63.4,88.2z M63.4,86.6  c-0.3,0-0.5,0.2-0.5,0.5c0,0.3,0.2,0.5,0.5,0.5c0.3,0,0.5-0.2,0.5-0.5C63.8,86.8,63.6,86.6,63.4,86.6z M63.4,85  c-0.3,0-0.5,0.2-0.5,0.5c0,0.3,0.2,0.5,0.5,0.5c0.3,0,0.5-0.2,0.5-0.5C63.8,85.2,63.6,85,63.4,85z M63.4,83.4  c-0.3,0-0.5,0.2-0.5,0.5c0,0.3,0.2,0.5,0.5,0.5c0.3,0,0.5-0.2,0.5-0.5C63.8,83.6,63.6,83.4,63.4,83.4z M63.4,81.8  c-0.3,0-0.5,0.2-0.5,0.5c0,0.3,0.2,0.5,0.5,0.5c0.3,0,0.5-0.2,0.5-0.5C63.8,82,63.6,81.8,63.4,81.8z M64.9,88.2  c-0.3,0-0.5,0.2-0.5,0.5c0,0.3,0.2,0.5,0.5,0.5c0.3,0,0.5-0.2,0.5-0.5C65.4,88.4,65.2,88.2,64.9,88.2z M64.9,86.6  c-0.3,0-0.5,0.2-0.5,0.5c0,0.3,0.2,0.5,0.5,0.5c0.3,0,0.5-0.2,0.5-0.5C65.4,86.8,65.2,86.6,64.9,86.6z M64.9,85  c-0.3,0-0.5,0.2-0.5,0.5c0,0.3,0.2,0.5,0.5,0.5c0.3,0,0.5-0.2,0.5-0.5C65.4,85.2,65.2,85,64.9,85z M64.9,83.4  c-0.3,0-0.5,0.2-0.5,0.5c0,0.3,0.2,0.5,0.5,0.5c0.3,0,0.5-0.2,0.5-0.5C65.4,83.6,65.2,83.4,64.9,83.4z M64.9,81.8  c-0.3,0-0.5,0.2-0.5,0.5c0,0.3,0.2,0.5,0.5,0.5c0.3,0,0.5-0.2,0.5-0.5C65.4,82,65.2,81.8,64.9,81.8z M64.9,80.2  c-0.3,0-0.5,0.2-0.5,0.5c0,0.3,0.2,0.5,0.5,0.5c0.3,0,0.5-0.2,0.5-0.5C65.4,80.4,65.2,80.2,64.9,80.2z M66.5,88.2  c-0.3,0-0.5,0.2-0.5,0.5c0,0.3,0.2,0.5,0.5,0.5c0.3,0,0.5-0.2,0.5-0.5C67,88.4,66.8,88.2,66.5,88.2z M66.5,86.6  c-0.3,0-0.5,0.2-0.5,0.5c0,0.3,0.2,0.5,0.5,0.5c0.3,0,0.5-0.2,0.5-0.5C67,86.8,66.8,86.6,66.5,86.6z M66.5,85  c-0.3,0-0.5,0.2-0.5,0.5c0,0.3,0.2,0.5,0.5,0.5c0.3,0,0.5-0.2,0.5-0.5C67,85.2,66.8,85,66.5,85z M66.5,83.4c-0.3,0-0.5,0.2-0.5,0.5  c0,0.3,0.2,0.5,0.5,0.5c0.3,0,0.5-0.2,0.5-0.5C67,83.6,66.8,83.4,66.5,83.4z M66.5,81.8c-0.3,0-0.5,0.2-0.5,0.5  c0,0.3,0.2,0.5,0.5,0.5c0.3,0,0.5-0.2,0.5-0.5C67,82,66.8,81.8,66.5,81.8z M66.5,80.2c-0.3,0-0.5,0.2-0.5,0.5c0,0.3,0.2,0.5,0.5,0.5  c0.3,0,0.5-0.2,0.5-0.5C67,80.4,66.8,80.2,66.5,80.2z M66.5,79.5c0.3,0,0.5-0.2,0.5-0.5c0-0.3-0.2-0.5-0.5-0.5  c-0.3,0-0.5,0.2-0.5,0.5C66,79.3,66.2,79.5,66.5,79.5z M68.1,88.2c-0.3,0-0.5,0.2-0.5,0.5c0,0.3,0.2,0.5,0.5,0.5  c0.3,0,0.5-0.2,0.5-0.5C68.5,88.4,68.3,88.2,68.1,88.2z M68.1,86.6c-0.3,0-0.5,0.2-0.5,0.5c0,0.3,0.2,0.5,0.5,0.5  c0.3,0,0.5-0.2,0.5-0.5C68.5,86.8,68.3,86.6,68.1,86.6z M68.1,85c-0.3,0-0.5,0.2-0.5,0.5c0,0.3,0.2,0.5,0.5,0.5  c0.3,0,0.5-0.2,0.5-0.5C68.5,85.2,68.3,85,68.1,85z M68.1,83.4c-0.3,0-0.5,0.2-0.5,0.5c0,0.3,0.2,0.5,0.5,0.5c0.3,0,0.5-0.2,0.5-0.5  C68.5,83.6,68.3,83.4,68.1,83.4z M68.1,81.8c-0.3,0-0.5,0.2-0.5,0.5c0,0.3,0.2,0.5,0.5,0.5c0.3,0,0.5-0.2,0.5-0.5  C68.5,82,68.3,81.8,68.1,81.8z M68.1,80.2c-0.3,0-0.5,0.2-0.5,0.5c0,0.3,0.2,0.5,0.5,0.5c0.3,0,0.5-0.2,0.5-0.5  C68.5,80.4,68.3,80.2,68.1,80.2z M68.1,79.5c0.3,0,0.5-0.2,0.5-0.5c0-0.3-0.2-0.5-0.5-0.5c-0.3,0-0.5,0.2-0.5,0.5  C67.6,79.3,67.8,79.5,68.1,79.5z M69.6,88.2c-0.3,0-0.5,0.2-0.5,0.5c0,0.3,0.2,0.5,0.5,0.5c0.3,0,0.5-0.2,0.5-0.5  C70.1,88.4,69.9,88.2,69.6,88.2z M69.6,86.6c-0.3,0-0.5,0.2-0.5,0.5c0,0.3,0.2,0.5,0.5,0.5c0.3,0,0.5-0.2,0.5-0.5  C70.1,86.8,69.9,86.6,69.6,86.6z M69.6,85c-0.3,0-0.5,0.2-0.5,0.5c0,0.3,0.2,0.5,0.5,0.5c0.3,0,0.5-0.2,0.5-0.5  C70.1,85.2,69.9,85,69.6,85z M69.6,83.4c-0.3,0-0.5,0.2-0.5,0.5c0,0.3,0.2,0.5,0.5,0.5c0.3,0,0.5-0.2,0.5-0.5  C70.1,83.6,69.9,83.4,69.6,83.4z M69.6,81.8c-0.3,0-0.5,0.2-0.5,0.5c0,0.3,0.2,0.5,0.5,0.5c0.3,0,0.5-0.2,0.5-0.5  C70.1,82,69.9,81.8,69.6,81.8z M69.6,80.2c-0.3,0-0.5,0.2-0.5,0.5c0,0.3,0.2,0.5,0.5,0.5c0.3,0,0.5-0.2,0.5-0.5  C70.1,80.4,69.9,80.2,69.6,80.2z M69.6,79.5c0.3,0,0.5-0.2,0.5-0.5c0-0.3-0.2-0.5-0.5-0.5c-0.3,0-0.5,0.2-0.5,0.5  C69.2,79.3,69.4,79.5,69.6,79.5z M71.2,86.6c-0.3,0-0.5,0.2-0.5,0.5c0,0.3,0.2,0.5,0.5,0.5c0.3,0,0.5-0.2,0.5-0.5  C71.6,86.8,71.4,86.6,71.2,86.6z M71.2,85c-0.3,0-0.5,0.2-0.5,0.5c0,0.3,0.2,0.5,0.5,0.5c0.3,0,0.5-0.2,0.5-0.5  C71.6,85.2,71.4,85,71.2,85z M71.2,83.4c-0.3,0-0.5,0.2-0.5,0.5c0,0.3,0.2,0.5,0.5,0.5c0.3,0,0.5-0.2,0.5-0.5  C71.6,83.6,71.4,83.4,71.2,83.4z M71.2,81.8c-0.3,0-0.5,0.2-0.5,0.5c0,0.3,0.2,0.5,0.5,0.5c0.3,0,0.5-0.2,0.5-0.5  C71.6,82,71.4,81.8,71.2,81.8z M71.2,80.2c-0.3,0-0.5,0.2-0.5,0.5c0,0.3,0.2,0.5,0.5,0.5c0.3,0,0.5-0.2,0.5-0.5  C71.6,80.4,71.4,80.2,71.2,80.2z M71.2,79.5c0.3,0,0.5-0.2,0.5-0.5c0-0.3-0.2-0.5-0.5-0.5c-0.3,0-0.5,0.2-0.5,0.5  C70.7,79.3,70.9,79.5,71.2,79.5z M72.7,85c-0.3,0-0.5,0.2-0.5,0.5c0,0.3,0.2,0.5,0.5,0.5c0.3,0,0.5-0.2,0.5-0.5  C73.2,85.2,73,85,72.7,85z M72.7,83.4c-0.3,0-0.5,0.2-0.5,0.5c0,0.3,0.2,0.5,0.5,0.5c0.3,0,0.5-0.2,0.5-0.5  C73.2,83.6,73,83.4,72.7,83.4z M72.7,81.8c-0.3,0-0.5,0.2-0.5,0.5c0,0.3,0.2,0.5,0.5,0.5c0.3,0,0.5-0.2,0.5-0.5  C73.2,82,73,81.8,72.7,81.8z M72.7,80.2c-0.3,0-0.5,0.2-0.5,0.5c0,0.3,0.2,0.5,0.5,0.5c0.3,0,0.5-0.2,0.5-0.5  C73.2,80.4,73,80.2,72.7,80.2z M72.7,79.5c0.3,0,0.5-0.2,0.5-0.5c0-0.3-0.2-0.5-0.5-0.5c-0.3,0-0.5,0.2-0.5,0.5  C72.3,79.3,72.5,79.5,72.7,79.5z"/></svg>