<?xml version="1.0" encoding="UTF-8" standalone="no"?>
<svg
   xmlns:dc="http://purl.org/dc/elements/1.1/"
   xmlns:cc="http://creativecommons.org/ns#"
   xmlns:rdf="http://www.w3.org/1999/02/22-rdf-syntax-ns#"
   xmlns:svg="http://www.w3.org/2000/svg"
   xmlns="http://www.w3.org/2000/svg"
   xmlns:sodipodi="http://sodipodi.sourceforge.net/DTD/sodipodi-0.dtd"
   xmlns:inkscape="http://www.inkscape.org/namespaces/inkscape"
   height="300px"
   width="300px"
   fill="#000000"
   version="1.1"
   x="0px"
   y="0px"
   viewBox="0 0 100 100"
   style="enable-background:new 0 0 100 100;"
   xml:space="preserve"
   id="svg4"
   sodipodi:docname="gba.svg"
   inkscape:export-filename="/Users/Pascal/Documents/Eclipse Java Workspace/RomInfoTool/src/main/resources/img/drop-icon.png"
   inkscape:export-xdpi="81.92"
   inkscape:export-ydpi="81.92"
   inkscape:version="0.92.2 5c3e80d, 2017-08-06"><metadata
     id="metadata10"><rdf:RDF><cc:Work
         rdf:about=""><dc:format>image/svg+xml</dc:format><dc:type
           rdf:resource="http://purl.org/dc/dcmitype/StillImage" /></cc:Work></rdf:RDF></metadata><defs
     id="defs8" /><sodipodi:namedview
     pagecolor="#ffffff"
     bordercolor="#666666"
     borderopacity="1"
     objecttolerance="10"
     gridtolerance="10"
     guidetolerance="10"
     inkscape:pageopacity="0"
     inkscape:pageshadow="2"
     inkscape:window-width="640"
     inkscape:window-height="480"
     id="namedview6"
     showgrid="false"
     inkscape:zoom="3.55333"
     inkscape:cx="120.732"
     inkscape:cy="150"
     inkscape:current-layer="svg4" /><path
     d="M24.3,62.8c0,0.8-0.6,1.4-1.4,1.4c-0.8,0-1.4-0.6-1.4-1.4c0-0.8,0.6-1.4,1.4-1.4C23.7,61.4,24.3,62.1,24.3,62.8z M23,56.3  c-0.8,0-1.4,0.6-1.4,1.4s0.6,1.4,1.4,1.4c0.8,0,1.4-0.6,1.4-1.4S23.7,56.3,23,56.3z M22.4,46.4v-2.6c0-0.3-0.2-0.4-0.5-0.4h-3.2V40  c0-0.3-0.3-0.5-0.6-0.5h-2.6c-0.3,0-0.6,0.2-0.6,0.5v3.4h-3.2c-0.3,0-0.5,0.2-0.5,0.4v2.6c0,0.3,0.2,0.6,0.5,0.6h3.2v3.2  c0,0.3,0.3,0.5,0.6,0.5h2.6c0.3,0,0.6-0.2,0.6-0.5V47h3.2C22.2,47,22.4,46.7,22.4,46.4z M86.7,41.1c-1.6,0-2.9,1.3-2.9,2.9  s1.3,2.9,2.9,2.9c1.6,0,2.9-1.3,2.9-2.9S88.3,41.1,86.7,41.1z M87.8,69.9L76.9,72c-0.9,0.2-1.7,0.4-2.6,0.6  c-3.1,1-12.5,3.5-24.3,3.5s-21.2-2.6-24.3-3.5c-0.9-0.3-1.7-0.5-2.6-0.6l-10.9-2.1c-4.5-1.1-7.6-5.3-7.2-10l2.3-26.9  c0-0.1,0-0.2,0-0.3l0.3-3.2c0.1-1.4,1.2-2.6,2.7-2.9L26.1,24c0.6-0.1,1.2-0.2,1.8-0.2H50h22.2c0.6,0,1.2,0.1,1.8,0.2l15.8,2.7  c1.4,0.2,2.5,1.4,2.7,2.9l0.3,3.3c0,0.1,0,0.2,0,0.3L95,59.9C95.4,64.6,92.3,68.8,87.8,69.9z M80.2,27.2c3.7,1.9,7.8,2.9,10.2,3.4  l-0.1-0.8c0-0.5-0.4-0.9-0.9-1L80.2,27.2z M9.6,30.6c2.4-0.5,6.5-1.5,10.2-3.4l-9.2,1.6c-0.5,0.1-0.9,0.5-0.9,1L9.6,30.6z   M92.9,60.1l-2.3-26.9c0-0.3-0.3-0.6-0.6-0.6c-3.2-0.6-9.2-2.1-13.8-5.3c-1.2-0.9-2.7-1.4-4.1-1.4H50H27.8c-1.5,0-2.9,0.5-4.1,1.4  C19.1,30.5,13.1,32,10,32.6c-0.3,0.1-0.5,0.3-0.6,0.6L7.1,60.1C7,61.8,7.4,63.6,8.5,65c1,1.4,2.5,2.4,4.2,2.8l10.8,2.1  c1,0.2,1.9,0.4,2.8,0.7c3.3,1,12.4,3.4,23.7,3.4s20.3-2.4,23.7-3.4c0.9-0.3,1.9-0.5,2.8-0.7l10.8-2.1c1.7-0.4,3.2-1.4,4.2-2.8  C92.6,63.6,93,61.8,92.9,60.1z M79.5,33.6c0.5,0,1-0.4,1-1s-0.4-1-1-1s-1,0.4-1,1S79,33.6,79.5,33.6z M86.2,59.9L77,62.1  c-0.2,0-0.3,0.3-0.3,0.5c0,0.2,0.3,0.3,0.5,0.3l9.3-2.2c0.2,0,0.3-0.3,0.3-0.5C86.6,60,86.4,59.9,86.2,59.9z M86.2,54.1L77,56.3  c-0.2,0-0.3,0.3-0.3,0.5c0,0.2,0.3,0.3,0.5,0.3l9.3-2.2c0.2,0,0.3-0.3,0.3-0.5C86.6,54.2,86.4,54.1,86.2,54.1z M86.2,58L77,60.2  c-0.2,0-0.3,0.3-0.3,0.5c0,0.2,0.3,0.3,0.5,0.3l9.3-2.2c0.2,0,0.3-0.3,0.3-0.5C86.6,58.1,86.4,57.9,86.2,58z M86.2,56.1L77,58.2  c-0.2,0-0.3,0.3-0.3,0.5c0,0.2,0.3,0.3,0.5,0.3l9.3-2.2c0.2,0,0.3-0.3,0.3-0.5C86.6,56.1,86.4,56,86.2,56.1z M78.9,49.7  c1.6,0,2.9-1.3,2.9-2.9c0-1.6-1.3-2.9-2.9-2.9c-1.6,0-2.9,1.3-2.9,2.9C76,48.4,77.3,49.7,78.9,49.7z M74.4,62  c0.1,2.9-1.9,5.5-4.8,6.1c-4.7,0.9-12.2,2-19.5,2s-14.8-1.1-19.5-2c-2.9-0.5-4.9-3.1-4.8-6.1l1.1-27.6c0.1-2.3,1.9-4.2,4.3-4.4  c4.7-0.3,12.4-0.7,18.9-0.7c6.5,0,14.3,0.4,19,0.7c2.3,0.1,4.2,2,4.3,4.4L74.4,62z M70,34.1c0-0.4-0.3-0.7-0.7-0.7H30.6  c-0.4,0-0.7,0.3-0.7,0.7v25.7c0,0.4,0.3,0.7,0.7,0.7h38.8c0.4,0,0.7-0.3,0.7-0.7V34.1z M86.2,61.9L77,64c-0.2,0-0.3,0.3-0.3,0.5  s0.3,0.3,0.5,0.3l9.3-2.2c0.2,0,0.3-0.3,0.3-0.5C86.6,61.9,86.4,61.8,86.2,61.9z"
     id="path2" /></svg>